Coordinates
version=1
nRows=30
nColumns=19
inDegrees=yes

Units are S.I. units (second, meters, Newtons, ...)
If the header above contains a line with 'inDegrees', this indicates whether rotational values are in degrees (yes) or radians (no).

endheader
time	pelvis_tilt	pelvis_list	pelvis_rotation	pelvis_tx	pelvis_ty	pelvis_tz	hip_flexion_r	hip_adduction_r	hip_rotation_r	knee_angle_r	knee_angle_r_beta	ankle_angle_r	hip_flexion_l	hip_adduction_l	hip_rotation_l	knee_angle_l	knee_angle_l_beta	ankle_angle_l
     12.72666667	     -4.38781609	      5.39893994	      2.56534631	      2.18392812	      1.00853733	      0.99350132	    -10.73127433	     -8.56197088	    -14.28266342	     51.08515815	      0.89160421	    -10.80452977	     24.02961536	      8.99418685	     -4.47662189	     10.68103795	      0.18641928	     -0.06409573
     12.73333333	     -3.73482525	      5.97045121	      2.78574643	      2.18395553	      1.00465128	      0.99300818	    -10.60251411	     -9.54566870	    -14.30875946	     54.11054565	      0.94440718	    -10.41536540	     23.52031539	      9.57073219	     -5.08865405	     12.20495603	      0.21301667	      0.00869928
     12.74000000	     -3.62488650	      6.33332566	      2.98704728	      2.18358199	      0.99970627	      0.99244506	     -9.66780488	    -10.31172621	    -14.01017856	     57.34070165	      1.00078404	    -10.17236789	     23.89574672	      9.88144993	     -5.83466524	     14.47970865	      0.25271859	      0.29587873
     12.74666667	     -2.86475757	      7.00745779	      3.24303307	      2.18335199	      0.99520745	      0.99202212	     -9.56005921	    -11.37375593	    -13.97109689	     60.41471956	      1.05443577	     -9.95685023	     23.39202120	     10.54285159	     -6.28241497	     16.60651510	      0.28983837	      0.70195284
     12.75333333	     -2.83911392	      7.38199562	      3.50349837	      2.18266579	      0.98946362	      0.99156647	     -8.40308359	    -12.07812503	    -13.51137320	     63.69779271	      1.11173621	     -9.73809378	     23.97616319	     10.86360474	     -6.78223910	     19.40246909	      0.33863697	      1.47546620
     12.76000000	     -2.08709006	      8.10576068	      3.80247106	      2.18205584	      0.98439091	      0.99123702	     -8.17339609	    -13.15531697	    -13.38500251	     66.80144324	      1.16590513	     -9.52175290	     23.57182240	     11.59063669	     -7.00871649	     21.92672212	      0.38269350	      2.41601580
     12.76666667	     -2.37848156	      8.36936619	      4.14315924	      2.18092286	      0.97784883	      0.99085358	     -6.49026964	    -13.67152540	    -12.72556036	     70.12541073	      1.22391931	     -9.22648421	     24.62845829	     11.82095462	     -7.33483526	     25.13083879	      0.43861588	      3.65607785
     12.77333333	     -2.25865924	      8.81293742	      4.51002383	      2.17974776	      0.97174418	      0.99054716	     -5.30789852	    -14.37668856	    -12.24447008	     73.31322960	      1.27955724	     -8.86574603	     25.10397021	     12.27411754	     -7.47983759	     28.14205236	      0.49117147	      5.15537702
     12.78000000	     -2.21499123	      9.20503488	      4.89103016	      2.17838828	      0.96556273	      0.99030932	     -3.96311042	    -15.00724423	    -11.70270541	     76.45926480	      1.33446591	     -8.42833293	     25.64832388	     12.69478885	     -7.53081186	     31.15717660	      0.54379532	      6.88687740
     12.78666667	     -2.25211914	      9.56759994	      5.26559897	      2.17690191	      0.95940736	      0.99008773	     -2.45080898	    -15.59501357	    -11.07847158	     79.54135835	      1.38825859	     -7.89902033	     26.22227449	     13.09679211	     -7.53623218	     34.08789746	      0.59494605	      8.80422428
     12.79333333	     -1.60527382	     10.15003096	      5.62898318	      2.17544765	      0.95441147	      0.98996924	     -1.78151621	    -16.38664347	    -10.65441502	     82.35317011	      1.43733397	     -7.39177124	     25.82063386	     13.74947952	     -7.33309284	     36.62169402	      0.63916914	     10.80743573
     12.80000000	     -2.46490186	     10.11634670	      5.97125287	      2.17345677	      0.94764234	      0.98986345	      0.99911632	    -16.51649683	     -9.61316842	     85.44015375	      1.49121200	     -6.65192260	     27.27313085	     13.75746423	     -7.30311260	     39.50904845	      0.68956298	     12.83010715
     12.80666667	     -2.64014424	     10.32627638	      6.25132888	      2.17158968	      0.94222291	      0.98985139	      2.94555138	    -16.87175076	     -8.72683131	     88.21213316	      1.53959216	     -5.97980486	     27.68619785	     14.02647449	     -7.10772016	     41.87419720	      0.73084261	     14.83395929
     12.81333333	     -2.84712411	     10.48554761	      6.47231925	      2.16965530	      0.93720945	      0.98989173	      5.02544964	    -17.14327797	     -7.74536522	     90.84206370	      1.58549311	     -5.30871105	     27.98997269	     14.23598753	     -6.88417973	     43.96998685	      0.76742104	     16.75339711
     12.82000000	     -3.08295105	     10.57961469	      6.64307233	      2.16763845	      0.93265167	      0.98999180	      7.22456654	    -17.30138297	     -6.68940371	     93.30297681	      1.62844415	     -4.62050520	     28.17816210	     14.37640161	     -6.60947356	     45.79420048	      0.79925958	     18.54327250
     12.82666667	     -2.78919681	     10.77620528	      6.78037768	      2.16578539	      0.92931462	      0.99008696	      8.75972515	    -17.55107056	     -5.80097311	     95.44094571	      1.66575874	     -3.90174334	     27.54125986	     14.61408107	     -6.21177091	     47.20831285	      0.82394049	     20.25248706
     12.83333333	     -3.52236595	     10.74800398	      6.66268133	      2.16358093	      0.92518309	      0.99049882	     11.85334896	    -17.44757394	     -4.24843644	     97.66810884	      1.70463007	     -3.36815366	     28.01914792	     14.50786038	     -6.22854387	     48.49475540	      0.84639315	     21.61858555
     12.84000000	     -3.07208146	     10.79416020	      6.87329417	      2.16163324	      0.92329140	      0.99046955	     13.21913340	    -17.48076213	     -3.55316787	     99.30128535	      1.73313438	     -2.91683554	     26.90043122	     14.66646928	     -5.54160493	     49.37196098	      0.86170328	     22.82530987
     12.84666667	     -4.09300386	     10.62048095	      6.62044502	      2.15953421	      0.91987111	      0.99095599	     16.73773817	    -17.12467527	     -1.90682808	    101.10317158	      1.76458323	     -2.39509110	     27.40908501	     14.37281588	     -5.66058672	     50.14815157	      0.87525036	     24.03732108
     12.85333333	     -4.11242662	     10.62842697	      6.45271539	      2.15767522	      0.91844230	      0.99134055	     18.86931727	    -16.95947960	     -0.74298988	    102.41111764	      1.78741119	     -1.93235807	     26.55636550	     14.28925176	     -5.51045617	     50.50012171	      0.88139340	     24.99585885
     12.86000000	     -4.40867377	     10.52244116	      6.34101692	      2.15582510	      0.91724736	      0.99166379	     21.29570739	    -16.68195239	      0.31942436	    103.48604161	      1.80617216	     -1.55204989	     25.90212569	     14.14014466	     -5.29616202	     50.67039363	      0.88436520	     25.77946320
     12.86666667	     -4.26836229	     10.36833294	      6.41848301	      2.15425655	      0.91732440	      0.99176128	     22.97305929	    -16.44869440	      0.88396790	    104.13937732	      1.81757502	     -1.09619274	     24.58000496	     14.03306320	     -4.73552710	     50.56910693	      0.88259742	     26.47475341
     12.87333333	     -4.55428037	     10.31217118	      6.14837754	      2.15266158	      0.91727941	      0.99229243	     25.33455321	    -16.15726930	      1.91692453	    104.70125863	      1.82738169	     -0.71532237	     23.65649340	     13.85585891	     -4.71385737	     50.23902428	      0.87683639	     26.93291099
     12.88000000	     -4.56045844	     10.04304471	      6.28071326	      2.15135350	      0.91836098	      0.99238255	     27.00430092	    -15.84925868	      2.18816669	    104.80240035	      1.82914695	     -0.25015026	     22.27812408	     13.64461640	     -4.10003527	     49.74651739	      0.86824052	     27.30677649
     12.88666667	     -4.65819340	      9.77513240	      6.33908666	      2.15024183	      0.91986793	      0.99255685	     28.72287272	    -15.55136191	      2.42777945	    104.65324132	      1.82654363	      0.25088951	     20.89808199	     13.39535196	     -3.58406526	     49.03766811	      0.85586877	     27.55594002
     12.89333333	     -4.82781318	      9.48705773	      6.40172744	      2.14928499	      0.92179399	      0.99281675	     30.42616037	    -15.26614577	      2.53653615	    104.25043766	      1.81951338	      0.77386082	     19.51811933	     13.09670819	     -3.12062594	     48.16784044	      0.84068741	     27.64051228
     12.90000000	     -4.84418291	      9.39048901	      6.28588382	      2.14857016	      0.92441416	      0.99334892	     31.91216273	    -15.08087566	      2.78608008	    103.62541265	      1.80860464	      1.39056682	     17.81421841	     12.95436330	     -2.75438881	     46.95596115	      0.81953613	     27.56581731
     12.90666667	     -5.14355526	      8.95071667	      6.40272052	      2.14804847	      0.92727571	      0.99365915	     33.47558699	    -14.69523361	      2.55136006	    102.66318948	      1.79181068	      2.00404478	     16.43158713	     12.52212291	     -2.15658886	     45.77882044	      0.79899114	     27.27981894
     12.91333333	     -4.76455798	      8.58320312	      6.53223597	      2.14803317	      0.93163070	      0.99397260	     34.01185356	    -14.49771342	      1.96970281	    101.32300837	      1.76842010	      2.75847704	     14.11861785	     12.10270218	     -1.42899355	     44.24525997	      0.77222546	     26.80720175
     12.92000000	     -5.25614528	      8.04171679	      6.60619874	      2.14806877	      0.93516006	      0.99448708	     35.52745320	    -14.02917601	      1.52780553	     99.86200135	      1.74292072	      3.42276143	     12.85266853	     11.51999820	     -0.92357324	     42.81213573	      0.74721273	     26.10914934
